<svg xmlns="http://www.w3.org/2000/svg" viewBox="0 0 157.32 64.87"><defs><style>.a{fill:#231f20;}</style></defs><title>dental-studio-logo-with-TM</title><path class="a" d="M56.91,40h9.71c10.58,0,13.69,7.26,13.69,14.77,0,8.38-4.27,14.86-13.78,14.86H56.91Zm1.82,28.05h8c5.52,0,11.79-3,11.79-13.28,0-12.11-7.76-13.19-12.16-13.19h-7.6Z" transform="translate(-55.77 -40.01)"/><path class="a" d="M103.88,68.06v1.58H83.76V40h19.92v1.58H85.58V53.45h17V55h-17v13Z" transform="translate(-55.77 -40.01)"/><path class="a" d="M107,40h2.28L128,67.19h.09V40h1.82V69.64h-2.15L108.91,42.25h-.09V69.64H107Z" transform="translate(-55.77 -40.01)"/><path class="a" d="M131.94,41.59V40h22.7v1.58H144.18V69.64h-1.83v-28Z" transform="translate(-55.77 -40.01)"/><path class="a" d="M164.56,40l11.7,29.63h-1.95l-3.74-9.5H156.38l-3.77,9.5h-2L162.56,40ZM170,58.56l-6.35-16.77h-.08L157,58.56Z" transform="translate(-55.77 -40.01)"/><path class="a" d="M178.38,40h1.82V68.06H197v1.58H178.38Z" transform="translate(-55.77 -40.01)"/><path class="a" d="M77.46,81.71c-.22-6.36-4.5-8.59-10.12-8.59-4.41,0-9.78,1.57-9.78,7.16S63,86.56,68.3,87.82C74.1,89.31,78.94,90,78.94,96.5c0,5.89-5.67,8.38-11,8.38-7.07,0-12.3-3.23-12.17-11.08h.87c0,7.46,4.67,10.21,11.3,10.21,4.88,0,10.12-2.18,10.12-7.55,0-6.28-6.11-6.81-10.91-8-5.06-1.18-10.47-2.1-10.47-8.2s5.63-8,10.65-8c6.1,0,10.68,2.48,11,9.46Z" transform="translate(-55.77 -40.01)"/><path class="a" d="M80.42,73.86V73h23.3v.87H92.51v30.28h-.88V73.86Z" transform="translate(-55.77 -40.01)"/><path class="a" d="M129.28,73h.87V92.53c0,8.25-4.1,12.35-11.43,12.35s-11.43-4.1-11.43-12.35V73h.88V92.53c0,7.42,3.44,11.48,10.55,11.48s10.56-4.06,10.56-11.48Z" transform="translate(-55.77 -40.01)"/><path class="a" d="M134.21,73h10.9c6.2,0,13.27,3.31,13.27,15.57,0,11.17-7.12,15.58-14.62,15.58h-9.55Zm.87,30.28H144c7.37,0,13.52-4.67,13.52-14.71,0-11.64-6.37-14.7-12.6-14.7h-9.82Z" transform="translate(-55.77 -40.01)"/><path class="a" d="M163.56,73h.88v31.15h-.88Z" transform="translate(-55.77 -40.01)"/><path class="a" d="M183.63,72.25C193,72.25,198,79.71,198,88.56s-5,16.32-14.35,16.32-14.35-7.46-14.35-16.32S174.3,72.25,183.63,72.25Zm0,31.76c8.38,0,13.39-6.46,13.48-15.45-.09-9-5.1-15.44-13.48-15.44s-13.39,6.46-13.48,15.44C170.24,97.55,175.26,104,183.63,104Z" transform="translate(-55.77 -40.01)"/><path class="a" d="M200.56,48.69h-.87V41h-2.84V40.2h6.55V41h-2.84Z" transform="translate(-55.77 -40.01)"/><path class="a" d="M208.91,47.11l2.87-6.91h1.32v8.49h-.87V41.35h0l-3.07,7.34h-.46l-3.07-7.34h0v7.34h-.86V40.2H206Z" transform="translate(-55.77 -40.01)"/></svg>